<mxfile host="app.diagrams.net" agent="Mozilla/5.0 (Windows NT 10.0; Win64; x64) AppleWebKit/537.36 (KHTML, like Gecko) Chrome/131.0.0.0 Safari/537.36" version="25.0.3">
  <diagram name="Page-1" id="VSHbYrbHKOrD0HbnBGtJ">
    <mxGraphModel dx="888" dy="474" grid="1" gridSize="10" guides="1" tooltips="1" connect="1" arrows="1" fold="1" page="1" pageScale="1" pageWidth="850" pageHeight="1100" math="0" shadow="0">
      <root>
        <mxCell id="0" />
        <mxCell id="1" parent="0" />
        <mxCell id="jK0SdRXiqzliKIxxVlrF-1" value="" style="shape=cylinder3;whiteSpace=wrap;html=1;boundedLbl=1;backgroundOutline=1;size=15;rotation=90;" vertex="1" parent="1">
          <mxGeometry x="339.85" y="192.03" width="60" height="115.94" as="geometry" />
        </mxCell>
        <mxCell id="jK0SdRXiqzliKIxxVlrF-2" value="" style="shape=cylinder3;whiteSpace=wrap;html=1;boundedLbl=1;backgroundOutline=1;size=15;rotation=0;" vertex="1" parent="1">
          <mxGeometry x="240" y="140" width="60" height="80" as="geometry" />
        </mxCell>
        <mxCell id="jK0SdRXiqzliKIxxVlrF-3" value="" style="shape=cylinder3;whiteSpace=wrap;html=1;boundedLbl=1;backgroundOutline=1;size=15;rotation=0;" vertex="1" parent="1">
          <mxGeometry x="490" y="55" width="60" height="100" as="geometry" />
        </mxCell>
        <mxCell id="jK0SdRXiqzliKIxxVlrF-4" value="" style="shape=process;whiteSpace=wrap;html=1;backgroundOutline=1;" vertex="1" parent="1">
          <mxGeometry x="460" y="220" width="120" height="60" as="geometry" />
        </mxCell>
        <mxCell id="jK0SdRXiqzliKIxxVlrF-7" value="" style="whiteSpace=wrap;html=1;shape=mxgraph.basic.roundRectCallout;dx=30;dy=15;size=5;boundedLbl=1;" vertex="1" parent="1">
          <mxGeometry x="630" y="180" width="100" height="60" as="geometry" />
        </mxCell>
        <mxCell id="jK0SdRXiqzliKIxxVlrF-9" value="" style="verticalLabelPosition=bottom;verticalAlign=top;html=1;shape=mxgraph.basic.acute_triangle;dx=0.5;" vertex="1" parent="1">
          <mxGeometry x="330" y="60" width="115" height="70" as="geometry" />
        </mxCell>
        <mxCell id="jK0SdRXiqzliKIxxVlrF-10" value="Dataset" style="text;html=1;align=center;verticalAlign=middle;whiteSpace=wrap;rounded=0;" vertex="1" parent="1">
          <mxGeometry x="240" y="180" width="60" height="30" as="geometry" />
        </mxCell>
        <mxCell id="jK0SdRXiqzliKIxxVlrF-11" value="Data Preprocessing&amp;nbsp;" style="text;html=1;align=center;verticalAlign=middle;whiteSpace=wrap;rounded=0;" vertex="1" parent="1">
          <mxGeometry x="330" y="235" width="60" height="30" as="geometry" />
        </mxCell>
        <mxCell id="jK0SdRXiqzliKIxxVlrF-14" value="Data&amp;nbsp;&lt;div&gt;Training&amp;nbsp;&lt;/div&gt;&lt;div&gt;&amp;amp;&lt;/div&gt;&lt;div&gt;Testing&amp;nbsp;&lt;/div&gt;" style="text;html=1;align=center;verticalAlign=middle;whiteSpace=wrap;rounded=0;" vertex="1" parent="1">
          <mxGeometry x="490" y="100" width="60" height="30" as="geometry" />
        </mxCell>
        <mxCell id="jK0SdRXiqzliKIxxVlrF-15" value="Modelling&lt;div&gt;&amp;amp;&lt;br&gt;&lt;div&gt;Evaluation&lt;/div&gt;&lt;/div&gt;" style="text;html=1;align=center;verticalAlign=middle;whiteSpace=wrap;rounded=0;" vertex="1" parent="1">
          <mxGeometry x="490" y="235" width="60" height="30" as="geometry" />
        </mxCell>
        <mxCell id="jK0SdRXiqzliKIxxVlrF-16" value="Feature&amp;nbsp;&lt;div&gt;Engineering&lt;/div&gt;" style="text;html=1;align=center;verticalAlign=middle;whiteSpace=wrap;rounded=0;" vertex="1" parent="1">
          <mxGeometry x="357.5" y="90" width="60" height="30" as="geometry" />
        </mxCell>
        <mxCell id="jK0SdRXiqzliKIxxVlrF-17" value="Fall Notification&amp;nbsp;" style="text;html=1;align=center;verticalAlign=middle;whiteSpace=wrap;rounded=0;" vertex="1" parent="1">
          <mxGeometry x="645" y="190" width="70" height="30" as="geometry" />
        </mxCell>
        <mxCell id="jK0SdRXiqzliKIxxVlrF-18" value="" style="endArrow=classic;html=1;rounded=0;exitX=0.333;exitY=1;exitDx=0;exitDy=0;entryX=0.5;entryY=1;entryDx=0;entryDy=0;entryPerimeter=0;exitPerimeter=0;" edge="1" parent="1" source="jK0SdRXiqzliKIxxVlrF-2" target="jK0SdRXiqzliKIxxVlrF-1">
          <mxGeometry width="50" height="50" relative="1" as="geometry">
            <mxPoint x="250" y="220" as="sourcePoint" />
            <mxPoint x="319.8499999999999" y="245" as="targetPoint" />
          </mxGeometry>
        </mxCell>
        <mxCell id="jK0SdRXiqzliKIxxVlrF-19" value="" style="endArrow=classic;html=1;rounded=0;exitX=0.33;exitY=1;exitDx=0;exitDy=0;exitPerimeter=0;" edge="1" parent="1">
          <mxGeometry width="50" height="50" relative="1" as="geometry">
            <mxPoint x="387.00000000000006" y="130" as="sourcePoint" />
            <mxPoint x="384" y="220" as="targetPoint" />
          </mxGeometry>
        </mxCell>
        <mxCell id="jK0SdRXiqzliKIxxVlrF-20" value="" style="curved=1;endArrow=classic;html=1;rounded=0;" edge="1" parent="1">
          <mxGeometry width="50" height="50" relative="1" as="geometry">
            <mxPoint x="440" y="130" as="sourcePoint" />
            <mxPoint x="490" y="80" as="targetPoint" />
            <Array as="points">
              <mxPoint x="490" y="130" />
              <mxPoint x="440" y="80" />
            </Array>
          </mxGeometry>
        </mxCell>
        <mxCell id="jK0SdRXiqzliKIxxVlrF-21" value="" style="endArrow=classic;html=1;rounded=0;exitX=0.5;exitY=1;exitDx=0;exitDy=0;exitPerimeter=0;entryX=0.5;entryY=0;entryDx=0;entryDy=0;" edge="1" parent="1" source="jK0SdRXiqzliKIxxVlrF-3" target="jK0SdRXiqzliKIxxVlrF-4">
          <mxGeometry width="50" height="50" relative="1" as="geometry">
            <mxPoint x="480" y="210" as="sourcePoint" />
            <mxPoint x="530" y="160" as="targetPoint" />
          </mxGeometry>
        </mxCell>
        <mxCell id="jK0SdRXiqzliKIxxVlrF-22" value="" style="curved=1;endArrow=classic;html=1;rounded=0;" edge="1" parent="1">
          <mxGeometry width="50" height="50" relative="1" as="geometry">
            <mxPoint x="580" y="250" as="sourcePoint" />
            <mxPoint x="630" y="200" as="targetPoint" />
            <Array as="points">
              <mxPoint x="630" y="250" />
              <mxPoint x="580" y="200" />
            </Array>
          </mxGeometry>
        </mxCell>
      </root>
    </mxGraphModel>
  </diagram>
</mxfile>
